<svg xmlns="http://www.w3.org/2000/svg" width="15" height="15" viewBox="0 0 120 116.5">
  <path
    fill="#6528F7"
    d="m58.85,96.85c-8.77,0-16.86-2.93-23.34-7.86l-7.29,7.29c8.38,6.75,19.03,10.81,30.63,10.81s22.46-4.13,30.87-11l-7.29-7.29c-6.52,5.04-14.7,8.05-23.58,8.05Z"/>
  <path
    fill="#6528F7"
    d="m107.69,58.25c0-11.6-4.05-22.25-10.81-30.63l-1.83,1.83-.02-.02-36.3,36.30-30.72-30.72c7.05-9.33,18.23-15.37,30.83-15.37,8.89,0,17.06,3.01,23.59,8.05l7.29-7.29c-8.42-6.87-19.16-11-30.88-11-26.98,0-48.84,21.87-48.84,48.84,0,11.71,4.13,22.46,11,30.88l7.29-7.29s0,0,0,0l9.27-9.27-7.19-7.19-7.33,7.33c-1.81-4.46-2.81-9.34-2.81-14.45s.97-9.82,2.71-14.22l35.89,34.56,35.85-34.69c1.78,4.43,2.76,9.27,2.76,14.34s-.97,9.84-2.73,14.25l-7.13-7.13-7.19,7.19h0l14.63,14.63 1.84,1.69c6.76-8.38,10.81-19.03,10.81-30.64Z"/>
</svg>
