<?xml version="1.0" encoding="utf-8"?>
<!-- Generator: Adobe Illustrator 27.9.0, SVG Export Plug-In . SVG Version: 6.00 Build 0)  -->
<svg version="1.1" id="Layer_1" xmlns="http://www.w3.org/2000/svg" xmlns:xlink="http://www.w3.org/1999/xlink" x="0px" y="0px"
	 viewBox="0 0 15 15" style="enable-background:new 0 0 15 15;" xml:space="preserve">
<style type="text/css">
	.st0{fill:#6528F7;}
	.st1{fill:#FFFFFF;}
</style>
<rect class="st0" width="15" height="15"/>
<path class="st1" d="M7.4,12.3c-1.1,0-2.1-0.4-2.9-1l-0.9,0.9c1,0.8,2.4,1.4,3.8,1.4s2.8-0.5,3.9-1.4l-0.9-0.9
	C9.5,11.9,8.5,12.3,7.4,12.3z"/>
<path class="st1" d="M13.5,7.5c0-1.4-0.5-2.8-1.4-3.8l-0.2,0.2l0,0L7.3,8.4L3.5,4.6c0.9-1.2,2.3-1.9,3.9-1.9c1.1,0,2.1,0.4,2.9,1
	l0.9-0.9c-1.1-0.9-2.4-1.4-3.9-1.4C4,1.4,1.3,4.1,1.3,7.5c0,1.5,0.5,2.8,1.4,3.9l0.9-0.9l0,0l1.2-1.2L3.8,8.4L2.9,9.3
	C2.7,8.7,2.5,8.1,2.5,7.5s0.1-1.2,0.3-1.8L7.4,10l4.5-4.3c0.2,0.6,0.3,1.2,0.3,1.8s-0.1,1.2-0.3,1.8l-0.9-0.9L10,9.3l0,0l1.8,1.8
	l0.2,0.2C13,10.3,13.5,8.9,13.5,7.5L13.5,7.5z"/>
</svg>
